<svg height="65.059" viewBox="0 0 88.266 65.059" width="88.266" xmlns="http://www.w3.org/2000/svg"><g fill="#7e5c14"><path d="m234.4-.4h.364a7.167 7.167 0 0 0 1.82.84 13.535 13.535 0 0 1 3.416 1.735 10.608 10.608 0 0 1 3.219 4.367c.476 1.148.728 2.352 1.148 3.5a31.159 31.159 0 0 1 -7.111-7.362 21.161 21.161 0 0 0 -2.856-3.08" transform="translate(-170.153 .4)"/><path d="m56.319 4.055a20.6 20.6 0 0 1 5.711-2.855 33.8 33.8 0 0 0 -4.563 5.6c-1.316 1.96-3.359 3.247-5.067 4.815.644-1.54.812-3.219 1.6-4.7a9.929 9.929 0 0 1 2.324-2.855" transform="translate(-39.103 -.752)"/><path d="m252.791 13a8.386 8.386 0 0 1 5.291 5.347c.924 3.079-.168 6.327.448 9.434-1.568-2.883-4.591-4.423-6.887-6.635a9.259 9.259 0 0 1 -2.743-5.711c.756 1.96 2.631 3.079 4.283 4.2a10.658 10.658 0 0 1 3.807 4c.14.224.252.476.42.7a75.437 75.437 0 0 1 -2.41-8.144 8.737 8.737 0 0 0 -2.209-3.191" transform="translate(-180.594 -9.249)"/><path d="m40.534 18.563a8.293 8.293 0 0 1 4.619-3.863 7.677 7.677 0 0 0 -1.68 2.016c-1.064 2.016-1.092 4.367-1.82 6.523a16.506 16.506 0 0 0 -.868 2.827 10.3 10.3 0 0 1 2.575-3.611c1.456-1.232 3.163-2.128 4.451-3.527a8.24 8.24 0 0 0 1.2-1.876c-.2 3.331-2.547 5.991-5.067 7.922a13.534 13.534 0 0 0 -4.311 4.591 21.008 21.008 0 0 0 .028-3.751c-.224-2.436-.28-5.039.868-7.251" transform="translate(-29.841 -10.473)"/><path d="m267.827 31.2a13.167 13.167 0 0 1 2.435 14.221 25.651 25.651 0 0 0 -1.428 5.011 13.178 13.178 0 0 0 -.9-2.687c-1.036-2.1-2.659-3.835-3.975-5.767a14.954 14.954 0 0 1 -2.464-6.1c1.652 2.883 5.179 4.2 6.411 7.362.476.9.364 1.988.84 2.883-.084-1.288-.308-2.575-.308-3.863a43.575 43.575 0 0 1 .364-5.739 8.754 8.754 0 0 0 -.98-5.319" transform="translate(-189.667 -22.354)"/><path d="m27.744 35.783a19.927 19.927 0 0 1 1.932-2.883 9.858 9.858 0 0 0 -.84 2.463 24.893 24.893 0 0 0 .42 6.747 17.563 17.563 0 0 1 -.14 4.367 3.773 3.773 0 0 0 .028 1.484 17.785 17.785 0 0 1 .644-2.743c.952-2.324 2.911-4 4.731-5.627a9.493 9.493 0 0 0 1.512-1.848 15.356 15.356 0 0 1 -1.231 4.143c-1.428 2.855-3.779 5.123-5.039 8.062a16.824 16.824 0 0 0 -.761 2.38c-.224-3.107-2.1-5.767-2.547-8.818a12.425 12.425 0 0 1 1.288-7.726" transform="translate(-20.326 -23.578)"/><path d="m278.8 68.4a16.346 16.346 0 0 1 1.036 4.451 16.57 16.57 0 0 1 -2.044 8.734c-1.456 2.016-3.107 3.919-4.507 5.963a16.8 16.8 0 0 0 -.056-4.591 49.153 49.153 0 0 1 -2.629-10.946 7.673 7.673 0 0 1 .028-1.792c.784 3.079 3.275 5.347 4.143 8.37a11.769 11.769 0 0 1 -.14 5.319 2.377 2.377 0 0 0 .308-.728 36.116 36.116 0 0 1 1.54-5.739 29.224 29.224 0 0 0 2.184-5.823 15.506 15.506 0 0 0 .14-3.219" transform="translate(-196.191 -49.14)"/><path d="m19.8 74.7a17.229 17.229 0 0 1 1.064-4.9 10.34 10.34 0 0 0 0 2.939c.532 3.163 2.575 5.795 3.247 8.9a15 15 0 0 0 1.064 3.835 11.883 11.883 0 0 1 -.475-3.274 15.706 15.706 0 0 1 3.051-7.558 11.918 11.918 0 0 0 1.26-3.023 17.812 17.812 0 0 1 -.28 4.227 69.938 69.938 0 0 1 -2.268 8.954 13.11 13.11 0 0 0 -.056 4.311 60.01 60.01 0 0 0 -4.143-5.4c-1.792-2.324-2.212-5.347-2.463-8.174z" transform="translate(-15.629 -50.148)"/><path d="m261.032 118.09c.392-3.667.28-7.474 1.876-10.89-.224 2.883.9 5.627.952 8.482a11.432 11.432 0 0 1 -1.736 5.6c1.512-1.82 2.631-3.975 4.311-5.655a21.955 21.955 0 0 0 4.115-4.843 16.055 16.055 0 0 0 1.12-3v2.464c-.364 4.591-3.387 8.566-7.195 11-1.82 1.176-3.667 2.3-5.375 3.611a16.245 16.245 0 0 0 1.932-6.775" transform="translate(-187.939 -77.078)"/><path d="m27.778 114.919a25.786 25.786 0 0 0 .84-6.019c1.792 4.451 1.4 9.35 2.324 14a17.328 17.328 0 0 0 1.428 3.5c-3.275-2.156-6.831-4.031-9.49-7a13.8 13.8 0 0 1 -2.8-5.151 15.886 15.886 0 0 0 -.28-2.352v-2.268a9.3 9.3 0 0 0 1.4 3.5c1.68 2.519 4.255 4.283 5.991 6.775a15.483 15.483 0 0 0 2.156 2.883 15.89 15.89 0 0 1 -1.092-2.184 10.933 10.933 0 0 1 -.476-5.683" transform="translate(-15.629 -78.302)"/><path d="m238.243 139.055c.812-1.232 1.68-2.408 2.6-3.555-1.484 3.191-.952 6.887-2.464 10.05a16.121 16.121 0 0 1 -3.135 4.031 6.181 6.181 0 0 0 1.624-1.176c3.107-2.771 7.418-3.639 10.47-6.467a10.615 10.615 0 0 0 2.24-3.079 13.429 13.429 0 0 1 -4.787 7.922 15.691 15.691 0 0 1 -5.711 3.247c-2.351.588-4.787.812-7.082 1.568a12.776 12.776 0 0 0 2.24-2.827c1.68-3.107 2.072-6.747 4-9.714" transform="translate(-168.425 -97.456)"/><path d="m37.862 137.5a24.821 24.821 0 0 1 3.807 5.767c1.008 2.408 1.54 5.011 2.883 7.279a12.322 12.322 0 0 0 2.24 2.715c-3.527-1.064-7.474-.812-10.638-2.939-3.387-2.128-6.327-5.4-7.055-9.434a9.293 9.293 0 0 0 2.715 3.443c2.827 2.268 6.523 3.107 9.322 5.375a7.73 7.73 0 0 0 2.436 1.568 10.949 10.949 0 0 1 -3.723-5.039c-.924-2.855-.756-5.963-1.988-8.734" transform="translate(-22.326 -98.896)"/><path d="m202.351 171.427a46.621 46.621 0 0 1 6.355-5.627c-1.232 1.764-1.848 3.835-2.967 5.627a7.014 7.014 0 0 1 -2.773 2.573c-.812.5-1.792.588-2.631 1.064 1.372 0 2.659-.56 4-.616 2.436-.392 4.955-.28 7.362-.84a9.584 9.584 0 0 0 5.375-2.939 12.534 12.534 0 0 1 -6.691 5.823c-3 1.232-6.355.812-9.434.056-1.932-.476-3.863-.924-5.851-1.26a14.256 14.256 0 0 0 5.067-1.9 16.07 16.07 0 0 0 2.184-1.96" transform="translate(-141.855 -119.274)"/><path d="m59.342 167.4a61.84 61.84 0 0 1 7.223 6.327 11.378 11.378 0 0 0 4.591 2.436 17.162 17.162 0 0 1 1.708.5c-2.771.224-5.375 1.372-8.118 1.736a12.97 12.97 0 0 1 -7.838-.756 12.475 12.475 0 0 1 -5.908-5.288 10.724 10.724 0 0 0 6.831 2.967c1.9.28 3.835.308 5.767.448 1.428.112 2.8.616 4.227.644-.924-.448-1.988-.5-2.855-1.036-1.932-.952-3-2.939-3.919-4.815-.532-1.092-1.148-2.128-1.708-3.163" transform="translate(-38.095 -120.426)"/><path d="m92.22 200.126a14.15 14.15 0 0 1 5.739.084c.448.084.924.364 1.4.252a13.782 13.782 0 0 1 6.579-.448c3.527.448 6.495 2.687 9.938 3.415a11.3 11.3 0 0 0 7.782-1.344 11.2 11.2 0 0 1 -14.109 2.547 57.413 57.413 0 0 1 -4.955-3.191 5.989 5.989 0 0 0 -3.835-.392 35.1 35.1 0 0 1 8.9 6.215c-.532.5-1.064.98-1.6 1.456a34.153 34.153 0 0 0 -8.286-6.859c-.252-.084-.5-.336-.784-.224a10.637 10.637 0 0 0 -2.715 1.484 26.176 26.176 0 0 0 -6.075 5.711h-.084a12.916 12.916 0 0 0 -1.6-1.428 32.223 32.223 0 0 1 7.055-5.375c.616-.336 1.26-.672 1.876-1.036a5.838 5.838 0 0 0 -2.6 0c-1.624.476-2.911 1.652-4.283 2.548a14.24 14.24 0 0 1 -5.711 2.547 10.327 10.327 0 0 1 -5.375-.448 11.457 11.457 0 0 1 -4.983-3.331 11.266 11.266 0 0 0 10.47.42 36.707 36.707 0 0 1 7.251-2.6" transform="translate(-55.016 -143.773)"/></g><path d="m5.768 104.149a.8.8 0 0 1 -.644-.252 1.021 1.021 0 0 1 -.224-.672v-13.1a.908.908 0 0 1 .252-.672.843.843 0 0 1 .648-.253 1.138 1.138 0 0 1 .588.14 1.089 1.089 0 0 1 .392.5l5.571 10.47h-.651l5.571-10.47a1.5 1.5 0 0 1 .392-.5 1.138 1.138 0 0 1 .588-.14.8.8 0 0 1 .644.252 1.021 1.021 0 0 1 .224.672v13.129a1.021 1.021 0 0 1 -.224.672.949.949 0 0 1 -1.288 0 1.021 1.021 0 0 1 -.224-.672v-11.2h.448l-4.983 9.322a1.621 1.621 0 0 1 -.336.392.879.879 0 0 1 -.952 0 .931.931 0 0 1 -.336-.392l-5.039-9.35h.5v11.226a1.021 1.021 0 0 1 -.224.672 1.1 1.1 0 0 1 -.693.226z" fill="#fff" transform="translate(-4.9 -64.117)"/><path d="m85.935 104.3a8.031 8.031 0 0 1 -2.575-.392 4.606 4.606 0 0 1 -1.848-1.148 4.774 4.774 0 0 1 -1.12-1.9 8.265 8.265 0 0 1 -.392-2.63v-7.95a.916.916 0 0 1 .252-.728.932.932 0 0 1 .7-.252 1 1 0 0 1 .728.252.957.957 0 0 1 .252.728v7.894a4.712 4.712 0 0 0 1.008 3.3 4.655 4.655 0 0 0 5.991 0 4.712 4.712 0 0 0 1.008-3.3v-7.894a.916.916 0 0 1 .252-.728 1.1 1.1 0 0 1 1.4 0 .957.957 0 0 1 .252.728v7.95a7.435 7.435 0 0 1 -.672 3.331 4.674 4.674 0 0 1 -1.988 2.044 7.053 7.053 0 0 1 -3.248.695z" fill="#fff" transform="translate(-58.976 -64.189)"/><path d="m144.8 104.277a.8.8 0 0 1 -.644-.252.931.931 0 0 1 -.252-.7v-13.017a1.129 1.129 0 0 1 .224-.728.782.782 0 0 1 .616-.252.941.941 0 0 1 .532.112 2.232 2.232 0 0 1 .42.448l8.818 11.674h-.532v-11.31a.932.932 0 0 1 .252-.7 1.022 1.022 0 0 1 1.344 0 1.047 1.047 0 0 1 .224.7v13.073a1.1 1.1 0 0 1 -.224.7.7.7 0 0 1 -.56.252 1.184 1.184 0 0 1 -.56-.14 1.689 1.689 0 0 1 -.448-.448l-8.79-11.674h.476v11.338a1.1 1.1 0 0 1 -.224.7 1.022 1.022 0 0 1 -.672.224z" fill="#fff" transform="translate(-104.988 -64.189)"/><path d="m214.175 104.161a6.692 6.692 0 0 1 -3.583-.924 6.157 6.157 0 0 1 -2.352-2.631 8.847 8.847 0 0 1 -.84-3.975 9.783 9.783 0 0 1 .476-3.107 6.891 6.891 0 0 1 1.372-2.38 6.035 6.035 0 0 1 2.128-1.512 7.591 7.591 0 0 1 2.824-.532 6.692 6.692 0 0 1 3.583.924 6.246 6.246 0 0 1 2.352 2.6 8.764 8.764 0 0 1 .84 3.975 9.784 9.784 0 0 1 -.476 3.107 6.643 6.643 0 0 1 -1.372 2.38 5.487 5.487 0 0 1 -2.127 1.514 7.076 7.076 0 0 1 -2.825.561zm0-1.708a4.4 4.4 0 0 0 2.547-.7 4.27 4.27 0 0 0 1.624-1.988 7.656 7.656 0 0 0 .56-3.135 6.671 6.671 0 0 0 -1.232-4.283 4.264 4.264 0 0 0 -3.527-1.512 4.771 4.771 0 0 0 -2.575.672 4.11 4.11 0 0 0 -1.624 1.988 8.1 8.1 0 0 0 -.56 3.163 6.617 6.617 0 0 0 1.26 4.283 4.424 4.424 0 0 0 3.527 1.512z" fill="#fff" transform="translate(-150.712 -64.045)"/><path d="m283.579 104.133a8.26 8.26 0 0 1 -3.975-.9 5.916 5.916 0 0 1 -2.463-2.576 8.888 8.888 0 0 1 -.84-4 9.837 9.837 0 0 1 .476-3.135 6.534 6.534 0 0 1 1.4-2.38 6.217 6.217 0 0 1 2.24-1.512 8.284 8.284 0 0 1 3-.532 9.225 9.225 0 0 1 2.491.336 6.125 6.125 0 0 1 2.212 1.12.871.871 0 0 1 .336.448.776.776 0 0 1 0 .5.81.81 0 0 1 -.252.448.736.736 0 0 1 -1.008.056 5.836 5.836 0 0 0 -1.764-.9 7.62 7.62 0 0 0 -2.016-.28 5.526 5.526 0 0 0 -2.8.672 4.116 4.116 0 0 0 -1.716 2.002 7.62 7.62 0 0 0 -.56 3.163 6.168 6.168 0 0 0 1.344 4.311 5.111 5.111 0 0 0 3.975 1.484 8.618 8.618 0 0 0 1.9-.2 10.121 10.121 0 0 0 1.792-.532l-.42 1.036v-5.012h-2.821a.726.726 0 0 1 -.812-.756.674.674 0 0 1 .224-.532.924.924 0 0 1 .588-.2h3.667a.788.788 0 0 1 .588.2.825.825 0 0 1 .224.616v5.347a1.11 1.11 0 0 1 -.112.56.642.642 0 0 1 -.42.336 14.368 14.368 0 0 1 -2.072.588 14.543 14.543 0 0 1 -2.406.224z" fill="#fff" transform="translate(-200.324 -64.045)"/></svg>
